<?xml version="1.0" encoding="UTF-8"?>
<svg width="98px" height="60px" viewBox="0 0 98 60" version="1.1" xmlns="http://www.w3.org/2000/svg" xmlns:xlink="http://www.w3.org/1999/xlink">
    <!-- Generator: Sketch 53.2 (72643) - https://sketchapp.com -->
    <title>moony copy 2</title>
    <desc>Created with Sketch.</desc>
    <defs>
        <rect id="path-1" x="0" y="0" width="150" height="60"></rect>
        <ellipse id="path-3" cx="25" cy="24.9676634" rx="25" ry="24.9003984"></ellipse>
        <filter x="-27.0%" y="-19.1%" width="142.0%" height="142.2%" filterUnits="objectBoundingBox" id="filter-5">
            <feOffset dx="-3" dy="1" in="SourceAlpha" result="shadowOffsetOuter1"></feOffset>
            <feGaussianBlur stdDeviation="3" in="shadowOffsetOuter1" result="shadowBlurOuter1"></feGaussianBlur>
            <feColorMatrix values="0 0 0 0 0   0 0 0 0 0   0 0 0 0 0  0 0 0 0.2 0" type="matrix" in="shadowBlurOuter1"></feColorMatrix>
        </filter>
        <circle id="path-6" cx="51.75" cy="51.75" r="17.75"></circle>
        <filter x="-38.0%" y="-26.8%" width="159.2%" height="159.2%" filterUnits="objectBoundingBox" id="filter-7">
            <feOffset dx="-3" dy="1" in="SourceAlpha" result="shadowOffsetOuter1"></feOffset>
            <feGaussianBlur stdDeviation="3" in="shadowOffsetOuter1" result="shadowBlurOuter1"></feGaussianBlur>
            <feColorMatrix values="0 0 0 0 0   0 0 0 0 0   0 0 0 0 0  0 0 0 0.2 0" type="matrix" in="shadowBlurOuter1"></feColorMatrix>
        </filter>
        <radialGradient cx="50%" cy="50%" fx="50%" fy="50%" r="47.566174%" id="radialGradient-8">
            <stop stop-color="#FFFFFF" stop-opacity="0.1" offset="0%"></stop>
            <stop stop-color="#FFFFFF" stop-opacity="0" offset="100%"></stop>
        </radialGradient>
        <ellipse id="path-9" cx="11" cy="11" rx="11" ry="10.9"></ellipse>
        <filter x="-61.4%" y="-43.6%" width="195.5%" height="196.3%" filterUnits="objectBoundingBox" id="filter-11">
            <feOffset dx="-3" dy="1" in="SourceAlpha" result="shadowOffsetOuter1"></feOffset>
            <feGaussianBlur stdDeviation="3" in="shadowOffsetOuter1" result="shadowBlurOuter1"></feGaussianBlur>
            <feColorMatrix values="0 0 0 0 0   0 0 0 0 0   0 0 0 0 0  0 0 0 0.2 0" type="matrix" in="shadowBlurOuter1"></feColorMatrix>
        </filter>
        <circle id="path-12" cx="51.5" cy="52" r="4.5"></circle>
        <filter x="-150.0%" y="-105.6%" width="333.3%" height="333.3%" filterUnits="objectBoundingBox" id="filter-13">
            <feOffset dx="-3" dy="1" in="SourceAlpha" result="shadowOffsetOuter1"></feOffset>
            <feGaussianBlur stdDeviation="3" in="shadowOffsetOuter1" result="shadowBlurOuter1"></feGaussianBlur>
            <feColorMatrix values="0 0 0 0 0   0 0 0 0 0   0 0 0 0 0  0 0 0 0.2 0" type="matrix" in="shadowBlurOuter1"></feColorMatrix>
        </filter>
        <rect id="path-14" x="12" y="34" width="4" height="4"></rect>
        <filter x="-300.0%" y="-225.0%" width="600.0%" height="600.0%" filterUnits="objectBoundingBox" id="filter-15">
            <feOffset dx="-2" dy="1" in="SourceAlpha" result="shadowOffsetOuter1"></feOffset>
            <feGaussianBlur stdDeviation="3" in="shadowOffsetOuter1" result="shadowBlurOuter1"></feGaussianBlur>
            <feColorMatrix values="0 0 0 0 0   0 0 0 0 0   0 0 0 0 0  0 0 0 0.2 0" type="matrix" in="shadowBlurOuter1"></feColorMatrix>
        </filter>
        <rect id="path-16" x="89.4497475" y="43.4497475" width="4" height="4"></rect>
        <filter x="-300.0%" y="-225.0%" width="600.0%" height="600.0%" filterUnits="objectBoundingBox" id="filter-17">
            <feOffset dx="-2" dy="1" in="SourceAlpha" result="shadowOffsetOuter1"></feOffset>
            <feGaussianBlur stdDeviation="3" in="shadowOffsetOuter1" result="shadowBlurOuter1"></feGaussianBlur>
            <feColorMatrix values="0 0 0 0 0   0 0 0 0 0   0 0 0 0 0  0 0 0 0.2 0" type="matrix" in="shadowBlurOuter1"></feColorMatrix>
        </filter>
        <rect id="path-18" x="20.4497475" y="67.4497475" width="4" height="4"></rect>
        <filter x="-300.0%" y="-225.0%" width="600.0%" height="600.0%" filterUnits="objectBoundingBox" id="filter-19">
            <feOffset dx="-2" dy="1" in="SourceAlpha" result="shadowOffsetOuter1"></feOffset>
            <feGaussianBlur stdDeviation="3" in="shadowOffsetOuter1" result="shadowBlurOuter1"></feGaussianBlur>
            <feColorMatrix values="0 0 0 0 0   0 0 0 0 0   0 0 0 0 0  0 0 0 0.2 0" type="matrix" in="shadowBlurOuter1"></feColorMatrix>
        </filter>
    </defs>
    <g id="Page-1" stroke="none" stroke-width="1" fill="none" fill-rule="evenodd">
        <g id="moony-copy-2" transform="translate(-24.034173, 0.000000)">
            <mask id="mask-2" fill="white">
                <use xlink:href="#path-1"></use>
            </mask>
            <g id="Mask"></g>
            <g id="Group-19" mask="url(#mask-2)">
                <g transform="translate(22.000000, -23.000000)">
                    <g id="Group-14" stroke-width="1" fill-rule="evenodd">
                        <g id="Group-11" transform="translate(26.500000, 27.000000)">
                            <mask id="mask-4" fill="white">
                                <use xlink:href="#path-3"></use>
                            </mask>
                            <g id="Mask">
                                <use fill="black" fill-opacity="1" filter="url(#filter-5)" xlink:href="#path-3"></use>
                                <use fill="#FFFFFF" fill-rule="evenodd" xlink:href="#path-3"></use>
                            </g>
                        </g>
                        <g id="Oval-Copy">
                            <use fill="black" fill-opacity="1" filter="url(#filter-7)" xlink:href="#path-6"></use>
                            <use fill="#F9F9F9" fill-rule="evenodd" xlink:href="#path-6"></use>
                        </g>
                        <circle id="Oval-Copy-5" fill="url(#radialGradient-8)" cx="51.5" cy="51.5" r="51.5"></circle>
                        <g id="Group-11-Copy" transform="translate(40.500000, 41.000000)">
                            <mask id="mask-10" fill="white">
                                <use xlink:href="#path-9"></use>
                            </mask>
                            <g id="Mask">
                                <use fill="black" fill-opacity="1" filter="url(#filter-11)" xlink:href="#path-9"></use>
                                <use fill="#F1F1F1" fill-rule="evenodd" xlink:href="#path-9"></use>
                            </g>
                            <g id="Group-11" mask="url(#mask-10)" stroke="#FFFFFF" stroke-opacity="0.1" stroke-width="0.625">
                                <g transform="translate(6.554006, 15.399455) rotate(40.000000) translate(-6.554006, -15.399455) translate(-83.945994, -43.600545)">
                                    <path d="M105.731406,58.6024496 L105.731406,116.932191" id="Path-20-Copy-71"></path>
                                    <path d="M105.584584,0.243401968 L105.584584,58.5731437" id="Path-20-Copy-286"></path>
                                    <path d="M107.293447,58.5971489 L107.293447,116.926891" id="Path-20-Copy-72"></path>
                                    <path d="M107.275182,0.391310168 L107.275182,58.7210519" id="Path-20-Copy-290"></path>
                                    <path d="M108.700326,58.5029181 L108.700326,116.83266" id="Path-20-Copy-73"></path>
                                    <path d="M108.83527,0.16852183 L108.83527,58.4982635" id="Path-20-Copy-294"></path>
                                    <path d="M110.109158,58.626175 L110.109158,116.955917" id="Path-20-Copy-74"></path>
                                    <path d="M110.115544,0.138569774 L110.115544,58.4683115" id="Path-20-Copy-298"></path>
                                    <path d="M111.697804,58.5565955 L111.697804,116.886337" id="Path-20-Copy-75"></path>
                                    <path d="M111.832747,0.222199214 L111.832747,58.5519409" id="Path-20-Copy-302"></path>
                                    <path d="M113.23324,58.6155736 L113.23324,116.945315" id="Path-20-Copy-76"></path>
                                    <path d="M113.368184,0.281177286 L113.368184,58.610919" id="Path-20-Copy-306"></path>
                                    <path d="M114.668677,58.6745516 L114.668677,117.004293" id="Path-20-Copy-77"></path>
                                    <path d="M114.521854,0.315503992 L114.521854,58.6452457" id="Path-20-Copy-310"></path>
                                    <path d="M116.357322,58.6049722 L116.357322,116.934714" id="Path-20-Copy-78"></path>
                                    <path d="M116.210499,0.245924542 L116.210499,58.5756662" id="Path-20-Copy-314"></path>
                                    <path d="M117.510992,58.6392989 L117.510992,116.969041" id="Path-20-Copy-79"></path>
                                    <path d="M117.645936,0.304902615 L117.645936,58.6346443" id="Path-20-Copy-318"></path>
                                    <path d="M119.199637,58.5697195 L119.199637,116.899461" id="Path-20-Copy-80"></path>
                                    <path d="M119.206024,0.0821142767 L119.206024,58.411856" id="Path-20-Copy-322"></path>
                                    <path d="M120.60847,58.6929763 L120.60847,117.022718" id="Path-20-Copy-81"></path>
                                    <path d="M120.614856,0.20537111 L120.614856,58.5351128" id="Path-20-Copy-326"></path>
                                    <path d="M122.17051,58.6876756 L122.17051,117.017417" id="Path-20-Copy-82"></path>
                                    <path d="M122.152245,0.481836832 L122.152245,58.8115785" id="Path-20-Copy-330"></path>
                                    <path d="M123.603994,58.529166 L123.603994,116.858908" id="Path-20-Copy-83"></path>
                                    <path d="M123.61038,0.0415608448 L123.61038,58.3713025" id="Path-20-Copy-334"></path>
                                    <path d="M124.886221,58.7167016 L124.886221,117.046443" id="Path-20-Copy-84"></path>
                                    <path d="M125.021165,0.382305328 L125.021165,58.712047" id="Path-20-Copy-338"></path>
                                    <path d="M126.728076,58.5185646 L126.728076,116.848306" id="Path-20-Copy-85"></path>
                                    <path d="M126.709811,0.312725878 L126.709811,58.6424676" id="Path-20-Copy-342"></path>
                                    <path d="M128.010303,58.7061002 L128.010303,117.035842" id="Path-20-Copy-86"></path>
                                    <path d="M128.01669,0.218495062 L128.01669,58.5482368" id="Path-20-Copy-346"></path>
                                    <path d="M129.570391,58.4833119 L129.570391,116.813054" id="Path-20-Copy-87"></path>
                                    <path d="M129.552126,0.277473134 L129.552126,58.6072148" id="Path-20-Copy-350"></path>
                                    <path d="M131.005828,58.54229 L131.005828,116.872032" id="Path-20-Copy-88"></path>
                                    <path d="M131.140771,0.207893685 L131.140771,58.5376354" id="Path-20-Copy-354"></path>
                                    <path d="M132.394441,0.242220391 L132.394441,58.5719621" id="Path-20-Copy-358"></path>
                                    <path d="M133.956482,0.236919702 L133.956482,58.5666614" id="Path-20-Copy-362"></path>
                                    <path d="M135.391919,0.295897775 L135.391919,58.6256395" id="Path-20-Copy-366"></path>
                                    <path d="M31.4948341,58.4958615 L31.4948341,116.825603" id="Path-20-Copy-21"></path>
                                    <path d="M136.927355,0.354875847 L136.927355,58.6846175" id="Path-20-Copy-370"></path>
                                    <path d="M33.0302706,58.5548395 L33.0302706,116.884581" id="Path-20-Copy-22"></path>
                                    <path d="M138.516001,0.285296398 L138.516001,58.6150381" id="Path-20-Copy-374"></path>
                                    <path d="M34.4657071,58.6138176 L34.4657071,116.943559" id="Path-20-Copy-23"></path>
                                    <path d="M139.769671,0.319623103 L139.769671,58.6493648" id="Path-20-Copy-378"></path>
                                    <path d="M36.0011436,58.6727957 L36.0011436,117.002537" id="Path-20-Copy-24"></path>
                                    <path d="M141.358316,0.250043654 L141.358316,58.5797854" id="Path-20-Copy-382"></path>
                                    <path d="M37.589789,58.6032162 L37.589789,116.932958" id="Path-20-Copy-25"></path>
                                    <path d="M142.893753,0.309021726 L142.893753,58.6387634" id="Path-20-Copy-386"></path>
                                    <path d="M38.996668,58.5089854 L38.996668,116.838727" id="Path-20-Copy-26"></path>
                                    <path d="M38.9784028,0.303146657 L38.9784028,58.6328884" id="Path-20-Copy-388"></path>
                                    <path d="M144.327236,0.150512149 L144.327236,58.4802538" id="Path-20-Copy-390"></path>
                                    <path d="M40.4055,58.6322423 L40.4055,116.961984" id="Path-20-Copy-27"></path>
                                    <path d="M40.5404437,0.297845969 L40.5404437,58.6275877" id="Path-20-Copy-392"></path>
                                    <path d="M146.017835,0.298420349 L146.017835,58.628162" id="Path-20-Copy-394"></path>
                                    <path d="M41.967541,58.6269416 L41.967541,116.956683" id="Path-20-Copy-28"></path>
                                    <path d="M42.1024846,0.29254528 L42.1024846,58.622287" id="Path-20-Copy-396"></path>
                                    <path d="M147.298109,0.268468294 L147.298109,58.59821" id="Path-20-Copy-398"></path>
                                    <path d="M43.4010244,58.468432 L43.4010244,116.798174" id="Path-20-Copy-29"></path>
                                    <path d="M43.3827592,0.262593225 L43.3827592,58.5923349" id="Path-20-Copy-400"></path>
                                    <path d="M148.733546,0.327446367 L148.733546,58.6571881" id="Path-20-Copy-402"></path>
                                    <path d="M44.8364609,58.5274101 L44.8364609,116.857152" id="Path-20-Copy-30"></path>
                                    <path d="M44.9714046,0.193013775 L44.9714046,58.5227555" id="Path-20-Copy-404"></path>
                                    <path d="M150.268982,0.386424439 L150.268982,58.7161661" id="Path-20-Copy-406"></path>
                                    <path d="M46.3718974,58.5863881 L46.3718974,116.91613" id="Path-20-Copy-31"></path>
                                    <path d="M46.3536322,0.38054937 L46.3536322,58.7102911" id="Path-20-Copy-408"></path>
                                    <path d="M151.72907,0.163636101 L151.72907,58.4933778" id="Path-20-Copy-410"></path>
                                    <path d="M47.9605428,58.5168087 L47.9605428,116.84655" id="Path-20-Copy-32"></path>
                                    <path d="M47.9422776,0.31096992 L47.9422776,58.6407116" id="Path-20-Copy-412"></path>
                                    <path d="M153.264507,0.222614173 L153.264507,58.5523559" id="Path-20-Copy-414"></path>
                                    <path d="M49.3427704,58.7043443 L49.3427704,117.034086" id="Path-20-Copy-33"></path>
                                    <path d="M49.3491565,0.216739104 L49.3491565,58.5464808" id="Path-20-Copy-416"></path>
                                    <path d="M154.853152,0.153034724 L154.853152,58.4827764" id="Path-20-Copy-418"></path>
                                    <path d="M50.8028583,58.4815559 L50.8028583,116.811298" id="Path-20-Copy-34"></path>
                                    <path d="M50.9378019,0.147159655 L50.9378019,58.4769014" id="Path-20-Copy-420"></path>
                                    <path d="M156.23538,0.340570318 L156.23538,58.670312" id="Path-20-Copy-422"></path>
                                    <path d="M52.3382947,58.540534 L52.3382947,116.870276" id="Path-20-Copy-35"></path>
                                    <path d="M52.4732384,0.206137727 L52.4732384,58.5358794" id="Path-20-Copy-424"></path>
                                    <path d="M157.668863,0.182060741 L157.668863,58.5118024" id="Path-20-Copy-426"></path>
                                    <path d="M53.7471268,58.6637908 L53.7471268,116.993533" id="Path-20-Copy-36"></path>
                                    <path d="M53.6003041,0.304743194 L53.6003041,58.6344849" id="Path-20-Copy-428"></path>
                                    <path d="M159.230904,0.176760053 L159.230904,58.5065018" id="Path-20-Copy-430"></path>
                                    <path d="M55.4623766,58.5299326 L55.4623766,116.859674" id="Path-20-Copy-37"></path>
                                    <path d="M55.5973203,0.19553635 L55.5973203,58.525278" id="Path-20-Copy-432"></path>
                                    <path d="M56.7179998,58.781747 L56.7179998,117.111489" id="Path-20-Copy-38"></path>
                                    <path d="M56.7243859,0.294141817 L56.7243859,58.6238835" id="Path-20-Copy-436"></path>
                                    <path d="M58.3312965,58.4304011 L58.3312965,116.760143" id="Path-20-Copy-39"></path>
                                    <path d="M58.3130313,0.224562367 L58.3130313,58.5543041" id="Path-20-Copy-440"></path>
                                    <path d="M59.7135242,58.6179367 L59.7135242,116.947678" id="Path-20-Copy-40"></path>
                                    <path d="M59.8484678,0.28354044 L59.8484678,58.6132821" id="Path-20-Copy-444"></path>
                                    <path d="M61.1489607,58.6769148 L61.1489607,117.006656" id="Path-20-Copy-41"></path>
                                    <path d="M61.0021379,0.317867146 L61.0021379,58.6476088" id="Path-20-Copy-448"></path>
                                    <path d="M62.7090485,58.4541265 L62.7090485,116.783868" id="Path-20-Copy-42"></path>
                                    <path d="M62.8439922,0.119730174 L62.8439922,58.4494719" id="Path-20-Copy-452"></path>
                                    <path d="M64.1178806,58.5773833 L64.1178806,116.907125" id="Path-20-Copy-43"></path>
                                    <path d="M64.0996154,0.37154453 L64.0996154,58.7012862" id="Path-20-Copy-456"></path>
                                    <path d="M65.9616879,58.596734 L65.9616879,116.926476" id="Path-20-Copy-44"></path>
                                    <path d="M65.8148652,0.237686319 L65.8148652,58.567428" id="Path-20-Copy-460"></path>
                                    <path d="M66.960196,58.5421306 L66.960196,116.871872" id="Path-20-Copy-45"></path>
                                    <path d="M67.0951397,0.207734264 L67.0951397,58.537476" id="Path-20-Copy-464"></path>
                                    <path d="M68.5488414,58.4725511 L68.5488414,116.802293" id="Path-20-Copy-46"></path>
                                    <path d="M68.5305762,0.266712336 L68.5305762,58.596454" id="Path-20-Copy-468"></path>
                                    <path d="M70.2128354,58.6847381 L70.2128354,117.01448" id="Path-20-Copy-47"></path>
                                    <path d="M70.2192216,0.197132887 L70.2192216,58.5268746" id="Path-20-Copy-472"></path>
                                    <path d="M71.5197144,58.5905072 L71.5197144,116.920249" id="Path-20-Copy-48"></path>
                                    <path d="M71.6546581,0.256110959 L71.6546581,58.5858527" id="Path-20-Copy-476"></path>
                                    <path d="M73.2083598,58.5209278 L73.2083598,116.850669" id="Path-20-Copy-49"></path>
                                    <path d="M73.0615371,0.161880143 L73.0615371,58.4916218" id="Path-20-Copy-480"></path>
                                    <path d="M74.6437963,58.5799059 L74.6437963,116.909648" id="Path-20-Copy-50"></path>
                                    <path d="M74.4969736,0.220858216 L74.4969736,58.5505999" id="Path-20-Copy-484"></path>
                                    <path d="M76.0506753,58.4856751 L76.0506753,116.815417" id="Path-20-Copy-51"></path>
                                    <path d="M76.1856189,0.151278766 L76.1856189,58.4810205" id="Path-20-Copy-488"></path>
                                    <path d="M77.4595073,58.6089319 L77.4595073,116.938674" id="Path-20-Copy-52"></path>
                                    <path d="M77.4658935,0.121326711 L77.4658935,58.4510684" id="Path-20-Copy-492"></path>
                                    <path d="M79.1501058,58.7568401 L79.1501058,117.086582" id="Path-20-Copy-53"></path>
                                    <path d="M79.1564919,0.269234911 L79.1564919,58.5989766" id="Path-20-Copy-496"></path>
                                    <path d="M80.5835892,58.5983305 L80.5835892,116.928072" id="Path-20-Copy-54"></path>
                                    <path d="M80.565324,0.392491745 L80.565324,58.7222334" id="Path-20-Copy-500"></path>
                                    <path d="M81.8904682,58.5040997 L81.8904682,116.833841" id="Path-20-Copy-55"></path>
                                    <path d="M82.0254119,0.169703407 L82.0254119,58.4994451" id="Path-20-Copy-504"></path>
                                    <path d="M83.5544622,58.7162867 L83.5544622,117.046028" id="Path-20-Copy-56"></path>
                                    <path d="M83.5608484,0.228681479 L83.5608484,58.5584232" id="Path-20-Copy-508"></path>
                                    <path d="M85.0145501,58.4934983 L85.0145501,116.82324" id="Path-20-Copy-57"></path>
                                    <path d="M84.9962849,0.287659551 L84.9962849,58.6174012" id="Path-20-Copy-512"></path>
                                    <path d="M86.2682202,58.527825 L86.2682202,116.857567" id="Path-20-Copy-58"></path>
                                    <path d="M86.4031638,0.193428735 L86.4031638,58.5231704" id="Path-20-Copy-516"></path>
                                    <path d="M87.9854231,58.6114545 L87.9854231,116.941196" id="Path-20-Copy-59"></path>
                                    <path d="M87.8386003,0.252406808 L87.8386003,58.5821485" id="Path-20-Copy-520"></path>
                                    <path d="M89.5208596,58.6704325 L89.5208596,117.000174" id="Path-20-Copy-60"></path>
                                    <path d="M89.6558032,0.336036247 L89.6558032,58.6657779" id="Path-20-Copy-524"></path>
                                    <path d="M90.6725766,58.4872716 L90.6725766,116.817013" id="Path-20-Copy-61"></path>
                                    <path d="M90.8075202,0.152875303 L90.8075202,58.482617" id="Path-20-Copy-528"></path>
                                    <path d="M92.3897795,58.570901 L92.3897795,116.900643" id="Path-20-Copy-62"></path>
                                    <path d="M92.2429567,0.211853376 L92.2429567,58.5415951" id="Path-20-Copy-532"></path>
                                    <path d="M93.925216,58.6298791 L93.925216,116.959621" id="Path-20-Copy-63"></path>
                                    <path d="M94.0601596,0.295482815 L94.0601596,58.6252245" id="Path-20-Copy-536"></path>
                                    <path d="M95.232095,58.5356483 L95.232095,116.86539" id="Path-20-Copy-64"></path>
                                    <path d="M95.2138297,0.329809521 L95.2138297,58.6595512" id="Path-20-Copy-540"></path>
                                    <path d="M96.896089,58.7478352 L96.896089,117.077577" id="Path-20-Copy-65"></path>
                                    <path d="M96.7739176,0.107021182 L96.7739176,58.4367629" id="Path-20-Copy-544"></path>
                                    <path d="M98.2029679,58.6536044 L98.2029679,116.983346" id="Path-20-Copy-66"></path>
                                    <path d="M98.3379116,0.319208144 L98.3379116,58.6489498" id="Path-20-Copy-548"></path>
                                    <path d="M99.7630558,58.4308161 L99.7630558,116.760558" id="Path-20-Copy-67"></path>
                                    <path d="M99.7447906,0.224977327 L99.7447906,58.554719" id="Path-20-Copy-552"></path>
                                    <path d="M101.300445,58.7072818 L101.300445,117.037024" id="Path-20-Copy-68"></path>
                                    <path d="M101.178274,0.0664677502 L101.178274,58.3962094" id="Path-20-Copy-556"></path>
                                    <path d="M102.862486,58.7019811 L102.862486,117.031723" id="Path-20-Copy-69"></path>
                                    <path d="M102.99743,0.367584839 L102.99743,58.6973265" id="Path-20-Copy-560"></path>
                                    <path d="M104.29597,58.5434715 L104.29597,116.873213" id="Path-20-Copy-70"></path>
                                    <path d="M104.277705,0.337632784 L104.277705,58.6673745" id="Path-20-Copy-564"></path>
                                </g>
                            </g>
                        </g>
                        <g id="Oval-Copy-4">
                            <use fill="black" fill-opacity="1" filter="url(#filter-13)" xlink:href="#path-12"></use>
                            <use fill="#F5F5F5" fill-rule="evenodd" xlink:href="#path-12"></use>
                        </g>
                    </g>
                    <g id="Rectangle" transform="translate(14.000000, 36.000000) rotate(45.000000) translate(-14.000000, -36.000000) ">
                        <use fill="black" fill-opacity="1" filter="url(#filter-15)" xlink:href="#path-14"></use>
                        <use fill="#FFFFFF" fill-rule="evenodd" xlink:href="#path-14"></use>
                    </g>
                    <g id="Rectangle-Copy-3" transform="translate(91.449747, 45.449747) rotate(45.000000) translate(-91.449747, -45.449747) ">
                        <use fill="black" fill-opacity="1" filter="url(#filter-17)" xlink:href="#path-16"></use>
                        <use fill="#FFFFFF" fill-rule="evenodd" xlink:href="#path-16"></use>
                    </g>
                    <g id="Rectangle-Copy-4" transform="translate(22.449747, 69.449747) rotate(45.000000) translate(-22.449747, -69.449747) ">
                        <use fill="black" fill-opacity="1" filter="url(#filter-19)" xlink:href="#path-18"></use>
                        <use fill="#FFFFFF" fill-rule="evenodd" xlink:href="#path-18"></use>
                    </g>
                </g>
            </g>
        </g>
    </g>
</svg>